# xmcd
#
# Track frame offsets: 
#        150
#        11378
#        27375
#        41192
#        56124
#        74321
#        89871
#        101045
#        115892
#        133516
#        146561
#        159516
#        172048
#        186575
#
# Disc length: 2812 seconds
#
# Revision: 0
# Processed by: cddbd v1.5.2PL0 Copyright (c) Steve Scherf et al.
# Submitted via: ExactAudioCopy v0.99pb4
#
DISCID=d20afa0e
DTITLE=Charlie Louvin - Echoes of the Louvin Brothers
DYEAR=2006
DGENRE=Bluegrass
TTITLE0=When I Stop Dreaming
TTITLE1=In The Pines
TTITLE2=Cash On The Barrelhead
TTITLE3=I Don't Feel Like Dancing
TTITLE4=Who Knows Where The Time Goes?
TTITLE5=Queen of the Bayou
TTITLE6=Are You Wasting My Time
TTITLE7=Stone-Deaf, Dumb and Blind
TTITLE8=My Baby's Gone
TTITLE9=The Christian Life
TTITLE10=I Wanna Die Young (At A Very Old Age)
TTITLE11=Turn Around
TTITLE12=Precious Jewel
TTITLE13=In The Pines
EXTD=
EXTT0=
EXTT1=
EXTT2=
EXTT3=
EXTT4=
EXTT5=
EXTT6=
EXTT7=
EXTT8=
EXTT9=
EXTT10=
EXTT11=
EXTT12=
EXTT13=
PLAYORDER=
